<?xml version="1.0" encoding="utf-8"?>
<!-- Generator: Adobe Illustrator 21.0.0, SVG Export Plug-In . SVG Version: 6.00 Build 0)  -->
<svg version="1.1" id="Layer_1" xmlns="http://www.w3.org/2000/svg" xmlns:xlink="http://www.w3.org/1999/xlink" x="0px" y="0px"
	 viewBox="0 0 141.7 146.2" style="enable-background:new 0 0 141.7 146.2;" xml:space="preserve">
<style type="text/css">
	.st0{fill:#FFFFFF;}
	.st1{fill:#FFFFFF;stroke:#000000;stroke-width:1.7911;stroke-miterlimit:10;}
</style>
<g>
	<g>
		<rect x="12.5" class="st0" width="116.6" height="146.2"/>
		<rect x="16.5" y="4" class="st0" width="108.6" height="138.2"/>
		<path class="st1" d="M18.5,6v134.2h104.6V6H18.5z"/>
	</g>
	<g>
		<g>
			<g>
				<g>
					<path d="M27.8,104.7c0,0-0.1-0.1-0.2-0.1c-0.1-0.1-0.1-0.1-0.1-0.2v-2.2c0-0.1,0-0.2,0.1-0.2c0.1-0.1,0.2-0.1,0.2-0.1h8
						l0.4,0.3v2.3l-0.2,0.2h-2.6l-0.1,0.1v9.6l-0.3,0.3h-2.3l-0.4-0.3v-9.6L27.8,104.7L27.8,104.7z"/>
					<path d="M43.7,109.6h-4.4l-0.2-0.2v-1.9l0.2-0.2h4.4l0.2,0.2v1.9L43.7,109.6z"/>
					<path d="M47.4,113c0-0.1,0-0.2,0.1-0.4c0.1-0.2,0.2-0.4,0.3-0.6c0.1-0.2,0.3-0.4,0.4-0.6c0.1-0.2,0.2-0.3,0.3-0.3
						c0.2,0,0.4,0.1,0.6,0.2c0.2,0.1,0.4,0.2,0.7,0.3c0.2,0.1,0.5,0.2,0.7,0.3c0.3,0.1,0.5,0.2,0.9,0.2c0.3,0,0.6-0.1,0.8-0.2
						c0.2-0.2,0.4-0.4,0.4-0.8c0-0.3-0.1-0.6-0.4-0.8c-0.3-0.2-0.6-0.5-1-0.7c-0.4-0.2-0.8-0.5-1.3-0.7c-0.5-0.2-0.9-0.5-1.3-0.8
						c-0.4-0.3-0.7-0.7-1-1.1c-0.3-0.4-0.4-1-0.4-1.6c0-0.6,0.1-1.1,0.4-1.5c0.2-0.4,0.5-0.8,0.9-1.1c0.4-0.3,0.8-0.5,1.3-0.7
						c0.5-0.2,1-0.2,1.5-0.2c0.1,0,0.3,0,0.6,0.1c0.3,0,0.5,0.1,0.8,0.2c0.3,0.1,0.6,0.1,0.9,0.2c0.3,0.1,0.6,0.2,0.9,0.3
						c0.3,0.1,0.5,0.3,0.6,0.4c0.2,0.1,0.2,0.3,0.2,0.5c0,0.1,0,0.3-0.1,0.5c-0.1,0.2-0.2,0.4-0.4,0.6c-0.2,0.2-0.3,0.4-0.5,0.5
						c-0.2,0.2-0.3,0.2-0.5,0.2c-0.2,0-0.4-0.1-0.6-0.2c-0.2-0.1-0.4-0.2-0.6-0.4s-0.5-0.3-0.7-0.4c-0.3-0.1-0.5-0.2-0.8-0.2
						c-0.3,0-0.5,0.1-0.7,0.2c-0.2,0.2-0.3,0.4-0.3,0.7c0,0.3,0.1,0.6,0.4,0.8c0.3,0.2,0.6,0.4,1,0.7c0.4,0.2,0.9,0.4,1.3,0.7
						c0.5,0.2,0.9,0.5,1.3,0.9c0.4,0.3,0.8,0.7,1,1.2c0.3,0.4,0.4,1,0.4,1.6c0,0.6-0.1,1.1-0.4,1.6c-0.2,0.5-0.6,0.9-1,1.2
						c-0.4,0.3-0.9,0.6-1.4,0.8c-0.5,0.2-1,0.3-1.6,0.3c-0.2,0-0.6,0-1-0.1c-0.5-0.1-0.9-0.2-1.4-0.3c-0.5-0.1-0.9-0.3-1.2-0.5
						C47.6,113.6,47.4,113.4,47.4,113"/>
					<path d="M59.7,102H62l0.3,0.3v4.5h5v-4.6c0,0,0.1-0.1,0.1-0.2c0-0.1,0.1-0.1,0.2-0.1H70l0.2,0.3v12.2l-0.2,0.2h-2.5l-0.2-0.2
						v-4.8h-5v4.7l-0.3,0.3h-2.4l-0.2-0.3v-12.1L59.7,102z"/>
					<path d="M74.9,114.6c0,0-0.1,0-0.2-0.1c-0.1-0.1-0.1-0.1-0.1-0.2v-12.2l0.4-0.3h2.2c0.1,0,0.1,0.1,0.2,0.1
						c0.1,0.1,0.1,0.1,0.1,0.2v12.1c0,0-0.1,0.1-0.1,0.2c-0.1,0.1-0.1,0.1-0.2,0.1H74.9z"/>
					<path d="M91.5,105.8c0,0.8-0.2,1.6-0.7,2.2c-0.5,0.6-1.1,1.1-1.8,1.4c0,0.1,0.1,0.3,0.2,0.6c0.1,0.3,0.3,0.6,0.4,0.9
						c0.2,0.3,0.4,0.7,0.6,1c0.2,0.4,0.4,0.7,0.6,1c0.2,0.3,0.3,0.6,0.4,0.8c0.1,0.2,0.2,0.4,0.2,0.5c0,0.1,0,0.2-0.1,0.3
						c-0.1,0.1-0.1,0.1-0.2,0.1h-2.5l-0.3-0.3l-2.3-4.6h-1.1v4.6l-0.4,0.3h-2.2l-0.3-0.3v-12.1c0-0.1,0-0.1,0.1-0.2
						c0.1-0.1,0.2-0.1,0.2-0.1h5.4c0.5,0,1,0.1,1.5,0.3c0.5,0.2,0.9,0.5,1.2,0.8c0.4,0.4,0.6,0.8,0.8,1.2
						C91.4,104.8,91.5,105.3,91.5,105.8 M84.8,107.2h2.9c0.2,0,0.3,0,0.4-0.1c0.1-0.1,0.2-0.2,0.3-0.3c0.1-0.1,0.1-0.3,0.2-0.4
						c0-0.2,0-0.3,0-0.4c0-0.2,0-0.3-0.1-0.5c0-0.1-0.1-0.3-0.2-0.4c-0.1-0.1-0.2-0.2-0.3-0.3c-0.1-0.1-0.3-0.1-0.4-0.1h-2.8V107.2z
						"/>
					<path d="M94.6,104.7c0,0-0.1-0.1-0.2-0.1c-0.1-0.1-0.1-0.1-0.1-0.2v-2.2c0-0.1,0-0.2,0.1-0.2c0.1-0.1,0.2-0.1,0.2-0.1h8
						l0.4,0.3v2.3l-0.2,0.2h-2.6l-0.1,0.1v9.6l-0.3,0.3h-2.3l-0.4-0.3v-9.6L94.6,104.7L94.6,104.7z"/>
					<path d="M105.9,113c0-0.1,0-0.2,0.1-0.4c0.1-0.2,0.2-0.4,0.3-0.6c0.1-0.2,0.3-0.4,0.4-0.6c0.1-0.2,0.2-0.3,0.3-0.3
						c0.2,0,0.4,0.1,0.6,0.2c0.2,0.1,0.4,0.2,0.7,0.3c0.2,0.1,0.5,0.2,0.7,0.3c0.3,0.1,0.5,0.2,0.9,0.2c0.3,0,0.6-0.1,0.8-0.2
						c0.2-0.2,0.4-0.4,0.4-0.8c0-0.3-0.1-0.6-0.4-0.8c-0.3-0.2-0.6-0.5-1-0.7c-0.4-0.2-0.8-0.5-1.3-0.7c-0.5-0.2-0.9-0.5-1.3-0.8
						c-0.4-0.3-0.7-0.7-1-1.1c-0.3-0.4-0.4-1-0.4-1.6c0-0.6,0.1-1.1,0.4-1.5c0.2-0.4,0.5-0.8,0.9-1.1s0.8-0.5,1.3-0.7
						c0.5-0.2,1-0.2,1.5-0.2c0.1,0,0.3,0,0.6,0.1c0.3,0,0.5,0.1,0.8,0.2c0.3,0.1,0.6,0.1,0.9,0.2c0.3,0.1,0.6,0.2,0.9,0.3
						c0.3,0.1,0.5,0.3,0.6,0.4c0.2,0.1,0.2,0.3,0.2,0.5c0,0.1,0,0.3-0.1,0.5c-0.1,0.2-0.2,0.4-0.4,0.6c-0.1,0.2-0.3,0.4-0.5,0.5
						c-0.2,0.2-0.3,0.2-0.5,0.2c-0.2,0-0.4-0.1-0.6-0.2c-0.2-0.1-0.4-0.2-0.6-0.4c-0.2-0.1-0.5-0.3-0.7-0.4
						c-0.3-0.1-0.5-0.2-0.8-0.2c-0.3,0-0.5,0.1-0.7,0.2c-0.2,0.2-0.3,0.4-0.3,0.7c0,0.3,0.1,0.6,0.4,0.8c0.3,0.2,0.6,0.4,1,0.7
						c0.4,0.2,0.9,0.4,1.3,0.7c0.5,0.2,0.9,0.5,1.3,0.9c0.4,0.3,0.8,0.7,1,1.2c0.3,0.4,0.4,1,0.4,1.6c0,0.6-0.1,1.1-0.4,1.6
						c-0.2,0.5-0.6,0.9-1,1.2s-0.9,0.6-1.4,0.8c-0.5,0.2-1,0.3-1.6,0.3c-0.2,0-0.6,0-1-0.1c-0.5-0.1-0.9-0.2-1.4-0.3
						c-0.5-0.1-0.9-0.3-1.2-0.5C106.1,113.6,105.9,113.4,105.9,113"/>
				</g>
				<g>
					<path d="M50,126.2c-0.2,0.4-0.3,0.8-0.3,1.2c-0.1,0.4-0.1,0.9-0.1,1.3c0,0.4-0.1,0.9-0.1,1.3c0,0.4-0.1,0.8-0.2,1.2
						c0,0.1-0.1,0.2-0.1,0.3c-0.1,0.1-0.1,0.2-0.2,0.2h-2.3c-0.1,0-0.2,0-0.2-0.1c-0.1-0.1-0.1-0.2-0.1-0.3c0-0.1,0-0.4,0.1-0.9
						c0.1-0.4,0.1-0.9,0.2-1.5c0.1-0.6,0.2-1.2,0.3-2c0.1-0.7,0.2-1.4,0.4-2.2c0.1-0.7,0.3-1.4,0.4-2.1c0.1-0.7,0.2-1.3,0.4-1.9
						c0.1-0.5,0.2-1,0.3-1.3c0.1-0.3,0.1-0.5,0.2-0.6h0.3c0.3,0,0.4,0,0.5,0.1s0.2,0.2,0.3,0.4c0.6,1.2,1.3,2.4,1.9,3.6
						c0.6,1.2,1.3,2.4,1.9,3.6h0.1c0.6-1.2,1.3-2.4,2-3.6s1.3-2.4,1.9-3.6c0.1-0.2,0.2-0.3,0.3-0.4c0.1-0.1,0.2-0.1,0.5-0.1
						c0.2,0,0.4,0,0.4,0.1c0,0.1,0.1,0.2,0.1,0.4l2,11.8c0,0.1,0,0.2,0,0.3c-0.1,0.1-0.1,0.2-0.3,0.2h-2.3c-0.1,0-0.2-0.1-0.2-0.2
						c0-0.1-0.1-0.2-0.1-0.3c-0.1-0.4-0.2-0.8-0.3-1.2c-0.1-0.4-0.1-0.9-0.2-1.3c0-0.4-0.1-0.9-0.1-1.3c0-0.4-0.1-0.9-0.1-1.3
						l-0.1-0.1l-3,5.6c-0.1,0.1-0.1,0.1-0.2,0.2c-0.1,0-0.2,0-0.3,0c-0.1,0-0.2,0-0.3,0c-0.1,0-0.2-0.1-0.2-0.2L50,126.2L50,126.2z"
						/>
					<path d="M67.9,125.4c0-0.9,0.2-1.7,0.5-2.5c0.3-0.8,0.8-1.5,1.4-2c0.6-0.6,1.3-1,2.1-1.4c0.8-0.3,1.6-0.5,2.5-0.5
						c0.9,0,1.7,0.2,2.5,0.5c0.8,0.3,1.5,0.8,2.1,1.4c0.6,0.6,1.1,1.3,1.4,2.1c0.3,0.8,0.5,1.6,0.5,2.5s-0.2,1.7-0.5,2.5
						c-0.3,0.8-0.8,1.5-1.4,2.1s-1.3,1.1-2.1,1.4c-0.8,0.3-1.6,0.5-2.5,0.5c-0.9,0-1.7-0.2-2.5-0.5c-0.8-0.3-1.5-0.8-2.1-1.4
						c-0.6-0.6-1-1.3-1.4-2.1C68.1,127.1,67.9,126.3,67.9,125.4 M68.8,124.2L68.8,124.2v0.1 M70.8,125.5c0,0.5,0.1,0.9,0.3,1.4
						s0.4,0.8,0.8,1.1c0.3,0.3,0.7,0.6,1.1,0.7c0.4,0.2,0.9,0.3,1.3,0.3c0.5,0,0.9-0.1,1.4-0.3c0.4-0.2,0.8-0.4,1.1-0.8
						c0.3-0.3,0.6-0.7,0.8-1.1c0.2-0.4,0.3-0.9,0.3-1.4c0-0.5-0.1-0.9-0.3-1.4c-0.2-0.4-0.4-0.8-0.8-1.1c-0.3-0.3-0.7-0.6-1.1-0.8
						c-0.4-0.2-0.9-0.3-1.4-0.3c-0.5,0-0.9,0.1-1.4,0.3c-0.4,0.2-0.8,0.5-1.1,0.8c-0.3,0.3-0.6,0.7-0.8,1.1
						C70.9,124.5,70.8,125,70.8,125.5"/>
					<path d="M98.5,123c0,0.8-0.2,1.6-0.7,2.2c-0.4,0.6-1.1,1.1-1.8,1.4c0,0.1,0.1,0.3,0.2,0.6c0.1,0.3,0.3,0.6,0.4,0.9
						c0.2,0.3,0.4,0.7,0.6,1c0.2,0.4,0.4,0.7,0.6,1c0.2,0.3,0.3,0.6,0.4,0.8c0.1,0.2,0.2,0.4,0.2,0.5c0,0.1,0,0.2-0.1,0.3
						c-0.1,0.1-0.1,0.1-0.2,0.1h-2.5l-0.3-0.3l-2.3-4.6h-1.1v4.6l-0.4,0.3h-2.2l-0.3-0.3v-12.1c0-0.1,0-0.1,0.1-0.2
						c0.1-0.1,0.2-0.1,0.2-0.1h5.4c0.5,0,1,0.1,1.5,0.3c0.5,0.2,0.9,0.5,1.2,0.8c0.4,0.4,0.6,0.8,0.8,1.2
						C98.4,121.9,98.5,122.4,98.5,123 M91.8,124.4h2.9c0.2,0,0.3,0,0.4-0.1c0.1-0.1,0.2-0.2,0.3-0.3c0.1-0.1,0.1-0.3,0.2-0.4
						c0-0.2,0.1-0.3,0.1-0.4c0-0.2,0-0.3-0.1-0.5c0-0.2-0.1-0.3-0.2-0.4c-0.1-0.1-0.2-0.2-0.3-0.3c-0.1-0.1-0.3-0.1-0.5-0.1h-2.8
						V124.4z"/>
					<polygon points="106.5,119.4 106.7,119.1 114.4,119.1 114.7,119.4 114.7,121.6 114.4,121.9 109.4,121.9 109.4,124 113.6,124 
						113.8,124.3 113.8,126.4 113.6,126.7 109.4,126.7 109.4,129 114.5,129 114.7,129.3 114.7,131.5 114.4,131.7 106.7,131.7 
						106.5,131.6 					"/>
					<path d="M27.3,128c0-0.4,0.1-0.8,0.2-1.2c0.1-0.4,0.3-0.7,0.5-1c0.2-0.3,0.5-0.6,0.8-0.9c0.3-0.3,0.6-0.5,1-0.7V124
						c-0.4-0.4-0.7-0.9-1.1-1.4c-0.3-0.5-0.5-1.1-0.5-1.7c0-0.5,0.1-1,0.3-1.4c0.2-0.4,0.5-0.7,0.9-1c0.4-0.3,0.8-0.5,1.2-0.6
						c0.5-0.1,0.9-0.2,1.4-0.2c0.5,0,1,0.1,1.4,0.2c0.5,0.1,0.9,0.4,1.2,0.6s0.7,0.6,0.9,1c0.2,0.4,0.3,0.9,0.3,1.4
						c0,0.7-0.2,1.3-0.6,1.9c-0.4,0.6-0.8,1-1.4,1.5v0.2l1.5,1.5l0.1,0c0.1,0,0.2-0.1,0.2-0.3c0.1-0.2,0.1-0.4,0.2-0.7
						c0.1-0.2,0.1-0.5,0.3-0.7c0.1-0.2,0.3-0.3,0.5-0.3c0.1,0,0.3,0,0.5,0s0.4,0.1,0.6,0.1c0.2,0.1,0.4,0.1,0.6,0.2
						c0.2,0.1,0.3,0.2,0.4,0.3c0,0.4-0.1,0.7-0.2,1s-0.2,0.6-0.4,0.8c-0.1,0.2-0.3,0.5-0.4,0.7c-0.1,0.2-0.2,0.4-0.2,0.6l1.8,1.8
						c0,0.1-0.1,0.3-0.2,0.5c-0.1,0.2-0.3,0.4-0.5,0.7c-0.2,0.2-0.4,0.4-0.6,0.6s-0.4,0.2-0.5,0.2c-0.1,0-0.3-0.1-0.4-0.2
						c-0.2-0.1-0.3-0.2-0.5-0.4c-0.2-0.2-0.3-0.3-0.5-0.5c-0.2-0.2-0.3-0.3-0.4-0.3c-0.2,0-0.4,0.1-0.7,0.3
						c-0.2,0.1-0.5,0.3-0.9,0.5c-0.3,0.2-0.7,0.3-1.1,0.4c-0.4,0.1-0.9,0.2-1.5,0.2c-0.6,0-1.1-0.1-1.6-0.3c-0.5-0.2-1-0.4-1.4-0.7
						s-0.7-0.7-1-1.2C27.4,129.2,27.3,128.6,27.3,128 M30.2,127.6c0,0.2,0,0.5,0.1,0.7c0.1,0.2,0.2,0.4,0.4,0.5
						c0.2,0.1,0.3,0.3,0.6,0.3c0.2,0.1,0.4,0.1,0.7,0.1c0.1,0,0.3,0,0.5-0.1c0.2,0,0.4-0.1,0.6-0.2c0.2-0.1,0.4-0.2,0.5-0.3
						c0.2-0.1,0.2-0.2,0.3-0.4c-0.3-0.5-0.7-0.9-1.1-1.4c-0.4-0.4-0.8-0.8-1.2-1.2c-0.2,0-0.4,0.1-0.6,0.2c-0.2,0.1-0.3,0.3-0.4,0.5
						c-0.1,0.2-0.2,0.4-0.3,0.6C30.2,127.3,30.2,127.5,30.2,127.6 M32.3,122.7c0.2,0,0.3-0.1,0.4-0.2c0.1-0.1,0.3-0.2,0.4-0.4
						c0.1-0.2,0.2-0.3,0.2-0.5c0.1-0.2,0.1-0.3,0.1-0.5c0-0.4-0.1-0.6-0.4-0.8c-0.2-0.2-0.5-0.3-0.9-0.3c-0.3,0-0.6,0.1-0.8,0.2
						c-0.2,0.2-0.4,0.4-0.4,0.7c0,0.2,0,0.3,0.1,0.5c0.1,0.2,0.2,0.3,0.3,0.4c0.1,0.1,0.2,0.3,0.4,0.4c0.1,0.1,0.3,0.2,0.4,0.3
						L32.3,122.7z"/>
				</g>
				<path d="M25.5,82.8l-0.3-0.4v-3.2c0-0.1,0.1-0.3,0.2-0.3c0.1-0.1,0.3-0.1,0.4-0.1h11.7l0.5,0.4v3.4l-0.3,0.3h-3.8L33.8,83v14.2
					l-0.5,0.4H30c-0.1,0-0.2-0.1-0.4-0.2c-0.1-0.1-0.2-0.2-0.2-0.4V82.8H25.5z"/>
				<path d="M58.7,97.1l-0.5,0.5h-3.3c-0.1,0-0.2-0.1-0.4-0.2c-0.1-0.1-0.2-0.2-0.2-0.4V79l0.3-0.4h1l10.4,10v-9.4
					c0-0.1,0.1-0.3,0.3-0.3c0.2-0.1,0.3-0.1,0.4-0.1h3.1c0.1,0,0.2,0.1,0.3,0.2c0.1,0.1,0.2,0.2,0.2,0.3v18.2c0,0.1-0.1,0.2-0.3,0.3
					c-0.2,0.1-0.3,0.1-0.4,0.1c-0.1,0-0.2,0-0.3,0c-0.1,0-0.2-0.1-0.3-0.2L58.7,87.4V97.1z"/>
				<path d="M76,88.2c0-1.3,0.2-2.6,0.7-3.7c0.5-1.2,1.2-2.2,2-3.1c0.9-0.9,1.9-1.6,3-2.1c1.2-0.5,2.4-0.8,3.7-0.8
					c1.2,0,2.4,0.2,3.6,0.7c1.2,0.5,2.2,1.2,3.1,2.1c0,0.2-0.1,0.5-0.3,0.8c-0.2,0.3-0.4,0.7-0.7,1c-0.3,0.3-0.6,0.6-0.9,0.8
					c-0.3,0.2-0.5,0.3-0.7,0.3c-0.1,0-0.3-0.1-0.5-0.2c-0.2-0.1-0.5-0.3-0.8-0.5s-0.7-0.3-1.1-0.5C86.7,83,86.3,83,85.8,83
					c-0.7,0-1.4,0.1-2,0.4c-0.6,0.3-1.2,0.7-1.6,1.2c-0.5,0.5-0.8,1.1-1.1,1.7c-0.3,0.6-0.4,1.3-0.4,2c0,0.7,0.1,1.4,0.4,2
					c0.3,0.6,0.7,1.2,1.1,1.7s1,0.8,1.7,1.1c0.6,0.3,1.3,0.4,2,0.4c0.1,0,0.2,0,0.5,0c0.2,0,0.5,0,0.7-0.1c0.3,0,0.5-0.1,0.7-0.1
					s0.3-0.1,0.3-0.2v-1.3c-0.1,0-0.3,0-0.6,0c-0.2,0-0.5,0-0.7,0c-0.2,0-0.4-0.1-0.6-0.2c-0.2-0.1-0.3-0.3-0.3-0.5v-2.7
					c0-0.1,0.1-0.2,0.2-0.3c0.1-0.1,0.2-0.2,0.3-0.2H92l0.4,0.4v7.6c-0.3,0.4-0.7,0.7-1.3,0.9c-0.6,0.2-1.2,0.4-1.8,0.6
					c-0.7,0.2-1.3,0.3-2,0.3c-0.7,0.1-1.2,0.1-1.6,0.1c-1.3,0-2.6-0.2-3.8-0.7c-1.2-0.5-2.2-1.2-3-2c-0.9-0.9-1.5-1.9-2.1-3
					C76.3,90.8,76,89.6,76,88.2z"/>
				<path d="M101.7,88.2c0,0.7,0.1,1.4,0.4,2c0.3,0.6,0.7,1.2,1.1,1.6c0.5,0.5,1,0.8,1.7,1.1c0.6,0.3,1.3,0.4,2,0.4
					c0.7,0,1.4-0.1,2-0.4c0.6-0.3,1.2-0.6,1.7-1.1c0.5-0.5,0.8-1,1.1-1.6c0.3-0.6,0.4-1.3,0.4-2c0-0.7-0.1-1.4-0.4-2
					c-0.3-0.6-0.6-1.2-1.1-1.7c-0.5-0.5-1-0.9-1.7-1.1c-0.6-0.3-1.3-0.4-2-0.4c-0.7,0-1.4,0.1-2,0.4c-0.6,0.3-1.2,0.7-1.7,1.1
					c-0.5,0.5-0.8,1-1.1,1.7C101.8,86.9,101.7,87.5,101.7,88.2z M97.4,88.2c0-1.3,0.2-2.6,0.7-3.7c0.5-1.2,1.2-2.2,2-3.1
					c0.9-0.9,1.9-1.6,3-2.1c1.2-0.5,2.4-0.8,3.7-0.8s2.6,0.3,3.8,0.8c1.2,0.5,2.2,1.2,3.1,2.1c0.9,0.9,1.6,1.9,2.1,3.1
					c0.5,1.2,0.8,2.4,0.8,3.8c0,1.3-0.3,2.6-0.8,3.7c-0.5,1.2-1.2,2.2-2.1,3c-0.9,0.9-1.9,1.6-3.1,2.1c-1.2,0.5-2.4,0.8-3.7,0.8
					c-1.3,0-2.6-0.3-3.7-0.8c-1.2-0.5-2.2-1.2-3-2.1c-0.9-0.9-1.5-1.9-2.1-3C97.6,90.8,97.4,89.6,97.4,88.2z"/>
			</g>
			<path d="M43,97.5c-0.1,0-0.2-0.1-0.3-0.1s-0.2-0.2-0.2-0.2V79.2c0-0.1,0.1-0.2,0.2-0.3c0.1-0.1,0.2-0.1,0.3-0.1h3.2
				c0.1,0,0.2,0,0.4,0.1c0.2,0.1,0.2,0.2,0.2,0.3v17.9c0,0.1-0.1,0.2-0.2,0.3c-0.1,0.1-0.2,0.1-0.3,0.1H43z"/>
		</g>
	</g>
</g>
</svg>
